<?xml version="1.0" encoding="UTF-8" standalone="no"?>
<svg
   xmlns:dc="http://purl.org/dc/elements/1.1/"
   xmlns:cc="http://creativecommons.org/ns#"
   xmlns:rdf="http://www.w3.org/1999/02/22-rdf-syntax-ns#"
   xmlns:svg="http://www.w3.org/2000/svg"
   xmlns="http://www.w3.org/2000/svg"
   xmlns:sodipodi="http://sodipodi.sourceforge.net/DTD/sodipodi-0.dtd"
   xmlns:inkscape="http://www.inkscape.org/namespaces/inkscape"
   version="1.1"
   id="svg62"
   width="886.66669"
   height="498.66666"
   viewBox="0 0 886.66669 498.66666"
   sodipodi:docname="3dPinter.svg"
   inkscape:version="1.0 (4035a4fb49, 2020-05-01)">
  <metadata
     id="metadata68">
    <rdf:RDF>
      <cc:Work
         rdf:about="">
        <dc:format>image/svg+xml</dc:format>
        <dc:type
           rdf:resource="http://purl.org/dc/dcmitype/StillImage" />
        <dc:title />
      </cc:Work>
    </rdf:RDF>
  </metadata>
  <defs
     id="defs66" />
  <sodipodi:namedview
     inkscape:document-rotation="0"
     pagecolor="#ffffff"
     bordercolor="#666666"
     borderopacity="1"
     objecttolerance="10"
     gridtolerance="10"
     guidetolerance="10"
     inkscape:pageopacity="0"
     inkscape:pageshadow="2"
     inkscape:window-width="1366"
     inkscape:window-height="705"
     id="namedview64"
     showgrid="false"
     inkscape:zoom="1.032754"
     inkscape:cx="443.33334"
     inkscape:cy="249.33333"
     inkscape:window-x="-8"
     inkscape:window-y="-8"
     inkscape:window-maximized="1"
     inkscape:current-layer="g70" />
  <g
     inkscape:groupmode="layer"
     inkscape:label="Image"
     id="g70">
    <path
       style="fill:#501616;stroke-width:1.33333"
       d="m 432.00001,418.5589 c 1.58071,-1.10669 1.39181,-1.22993 -0.901,-0.58781 -1.59556,0.44684 -12.39556,-1.398 -24,-4.09964 l -21.099,-4.91207 -14.66667,2.52031 c -18.91552,3.25042 -40.89516,3.19588 -52.44842,-0.13014 -11.33511,-3.26322 -22.93171,-11.00206 -29.81255,-19.895 -5.28378,-6.82885 -6.25976,-7.45826 -14.81663,-9.55524 l -9.16028,-2.24484 6.45228,-3.59956 c 21.85784,-12.19394 99.57082,-58.53787 105.11894,-62.68741 19.09496,-14.28145 32.74777,-34.05329 37.41708,-54.18696 2.01921,-8.70668 2.38961,-38.57296 0.61322,-49.44702 l -0.69697,-4.2665 -15.40472,10.2665 c -8.4726,5.64658 -19.41033,13.2665 -24.30608,16.93317 -7.84204,5.87329 -8.9046,7.19559 -8.92861,11.11111 -0.0149,2.44445 0.42274,4.2243 0.97274,3.95524 0.55,-0.26906 6.4,-3.14892 13,-6.39968 6.6,-3.25076 12.58928,-6.17706 13.30952,-6.50287 0.72024,-0.3258 0.3131,0.40405 -0.90476,1.62192 -1.21785,1.21785 -2.61452,2.21428 -3.10369,2.21428 -0.48917,0 -2.78019,1.34635 -5.09113,2.99189 -2.31096,1.64555 -4.944,2.82144 -5.8512,2.61311 -0.9117,-0.20936 -1.33996,0.4278 -0.9575,1.42452 0.39519,1.02983 -0.75773,2.57917 -2.68796,3.6122 -1.85897,0.99487 -3.37994,2.30748 -3.37994,2.91689 0,0.60942 -0.83582,1.10803 -1.85735,1.10803 -2.19724,0 -3.47407,2.85217 -3.48097,7.77572 -0.009,6.20532 -4.44898,11.29395 -15.20186,17.42156 l -10.2902,5.86395 -5.73814,-5.63158 -5.73814,-5.63156 -8.88798,10.19092 c -4.88839,5.60502 -11.11939,13.18084 -13.84667,16.83518 -4.12975,5.53353 -13.92359,13.17581 -16.88526,13.17581 -1.23621,0 5.7771,-13.23512 11.43523,-21.57989 2.82673,-4.16894 8.4424,-11.47316 12.47928,-16.2316 7.19863,-8.48534 8.15222,-11.74862 3.90896,-13.37691 -4.32896,-1.66117 -0.85699,-4.68551 16.98886,-14.79851 10.33986,-5.85946 21.2705,-12.77172 24.29033,-15.36058 10.97117,-9.40548 33.66679,-25.33002 45.81364,-32.14544 3.11101,-1.74556 5.66101,-3.65435 5.66667,-4.24178 0.017,-1.76385 -8.90767,-4.93196 -13.89347,-4.93196 h -4.65604 l 6.82621,-9 c 3.75443,-4.95 8.98038,-13.5 11.61323,-19 l 4.787,-10 v -32.33273 c 0,-17.78301 0.0539,-32.333011 0.1196,-32.333338 0.0657,-3.27e-4 5.16577,7.475979 11.33333,16.614008 6.16758,9.13804 11.66,16.63804 12.20542,16.66667 0.54541,0.0286 5.64541,-9.09794 11.33333,-20.28127 L 459.33335,80.666666 459.68465,125 c 0.19322,24.38333 0.66712,44.33333 1.05312,44.33333 0.386,0 3.10999,-1.22856 6.05332,-2.73013 8.78107,-4.47978 36.8021,-15.15492 53.20892,-20.27096 35.75172,-11.14826 59.28995,-15.00576 85.55717,-14.02133 19.21712,0.72021 30.2657,3.61678 35.26148,9.24438 2.50785,2.82501 2.50576,2.82803 -0.7688,1.10675 l -3.28351,-1.72598 2.51636,3.8653 c 1.44721,2.22302 1.70929,3.20534 0.61684,2.31202 -1.04475,-0.8543 -2.49953,-1.6059 -3.23287,-1.67022 -0.73333,-0.0643 -4.33333,-1.16535 -8,-2.44672 -8.9517,-3.12832 -40.28518,-3.01455 -57.33333,0.20818 -13.28314,2.51099 -42.99715,9.91298 -45.77299,11.40239 -1.08043,0.57972 5.69023,4.01403 17.33333,8.79204 14.66031,6.0162 20.50251,9.15156 25.10632,13.47395 l 6.00001,5.63322 -0.46868,57.68276 c -0.25779,31.72552 -0.99294,59.06162 -1.63367,60.74688 -0.85223,2.24154 -2.22164,3.06414 -5.10095,3.06414 -2.16479,0 -16.27964,-5.17551 -31.36635,-11.50114 l -27.43036,-11.50113 v -59.8322 c 0,-40.83729 -0.44374,-59.8322 -1.39774,-59.8322 -0.76875,0 -3.91875,1.24067 -7,2.75703 -3.08124,1.51636 -9.20226,4.15877 -13.60226,5.87202 -4.4,1.71326 -12.05,4.97856 -17,7.25626 l -9,4.14124 v 65.07712 65.07713 l 31.66667,13.12949 c 17.41667,7.22123 44.26667,18.481 59.66667,25.02172 15.4,6.54074 31.68603,12.8644 36.19116,14.05262 l 8.19117,2.1604 -44.85784,16.26423 c -66.06347,23.95286 -78.20829,28.34238 -92.19116,33.32075 -9.05317,3.22324 -14.94887,4.50777 -20.66667,4.50279 -5.97037,-0.005 -7.4926,-0.36222 -6,-1.40723 z m -68.86296,-14.24131 c 0.34527,-0.55864 -5.46932,-2.42938 -12.92131,-4.1572 -7.45198,-1.72781 -22.69906,-5.3749 -33.8824,-8.10466 -11.18333,-2.72976 -20.33333,-4.56074 -20.33333,-4.06883 0,3.23821 19.18584,13.252 30.54949,15.94491 6.0456,1.43265 35.747,1.74584 36.58755,0.38578 z m 61.19629,-15.01348 c 4.95,-1.72182 9,-3.61964 9,-4.21736 0,-1.84226 -1.96588,-1.2562 -12.15986,3.62514 -10.81046,5.17653 -10.29631,5.27289 3.15986,0.59222 z m 14.33334,-9.30412 c 0,-0.73333 -0.86459,-1.33333 -1.92131,-1.33333 -1.05672,0 -2.29213,0.6 -2.74536,1.33333 -0.45323,0.73334 0.41136,1.33334 1.92131,1.33334 1.50994,0 2.74536,-0.6 2.74536,-1.33334 z m 5.33333,-2.66666 c 0,-0.73334 -0.56458,-1.33334 -1.25464,-1.33334 -0.69005,0 -1.62547,0.6 -2.07869,1.33334 -0.45323,0.73333 0.11133,1.33333 1.25464,1.33333 1.14328,0 2.07869,-0.6 2.07869,-1.33333 z m 20.592,-12.00389 c 16.43227,-9.78354 23.96954,-15.3641 17.29339,-12.80396 -4.53343,1.73846 -36.55205,21.41342 -36.55205,22.46069 0,1.72982 0.84894,1.30414 19.25866,-9.65673 z m 39.74134,-6.74219 c 2.75,-0.98429 5,-2.34125 5,-3.01547 0,-2.83464 -7.5222,-12.81165 -9.69316,-12.85644 -1.29791,-0.0268 -4.80276,1.49347 -7.78855,3.37832 -5.36553,3.38711 -5.40055,3.46084 -3.00865,6.33334 6.26706,7.52628 7.79428,8.94841 9.09302,8.4674 0.76854,-0.28464 3.64734,-1.32287 6.39734,-2.30715 z m -44.4896,-40.92059 c 0.28297,-3.01813 -3.22599,-1.73761 -5.48051,2 -1.21645,2.01667 -3.59581,5.17359 -5.28748,7.01538 -7.18199,7.81937 -6.39563,8.10292 1.80625,0.65129 4.84302,-4.4 8.8758,-8.75 8.96174,-9.66667 z m -61.22743,0.89752 c -3.21803,-2.85984 -3.80858,-3.8687 -1.94964,-3.3307 2.35309,0.68101 2.29653,0.45788 -0.48104,-1.89752 -1.73126,-1.46812 -2.66126,-2.6693 -2.06667,-2.6693 0.59457,0 0.40383,-0.67721 -0.42387,-1.5049 -1.11765,-1.11766 -2.39937,-0.80132 -4.9809,1.2293 l -3.476,2.73423 8.3809,4.75012 c 4.6095,2.61257 8.65824,4.75939 8.99722,4.77069 0.33896,0.0107 -1.46104,-1.82556 -4,-4.08192 z m -75.94964,-55.0676 c 0,-0.27686 -1.05,-1.32686 -2.33334,-2.33333 -2.11474,-1.65849 -2.1619,-1.61133 -0.50341,0.50341 1.74183,2.221 2.83675,2.92731 2.83675,1.82992 z M 433.33334,190.7868 c 9.16667,-5.19846 16.13326,-9.45214 15.48131,-9.4526 -2.01357,-0.001 -25.69085,12.94849 -39.25865,21.47198 -11.62955,7.30586 -36.22266,24.86546 -36.22266,25.86315 0,0.22065 9.75,-6.086 21.66667,-14.0148 11.91667,-7.92879 29.16667,-18.66927 38.33333,-23.86773 z m -6.66666,-73.45793 c 0,-0.68485 0.75,-1.06235 1.66666,-0.83888 0.91667,0.22346 1.21667,0.15463 0.66667,-0.15296 -0.55,-0.30759 -1,-1.21534 -1,-2.01723 0,-1.28669 -9.27113,-15.653135 -10.10148,-15.653135 -0.73588,0 -0.54071,29.627585 0.20309,30.831085 0.79654,1.2888 8.56506,-9.7484 8.56506,-12.16888 z m 16.4601,8.61362 c -0.43425,-1.13162 -1.0755,-1.77154 -1.425,-1.42204 -0.3495,0.34951 -0.23997,1.27538 0.2434,2.05751 1.31474,2.12728 2.08318,1.71401 1.1816,-0.63547 z m -153.43099,89.78377 c -13.36732,-9.01612 -24.31732,-16.70449 -24.33333,-17.08529 -0.0267,-0.63381 11.10156,-7.17597 74.33626,-43.70145 12.27818,-7.09211 22.55309,-12.20571 23.66666,-11.77839 2.65023,1.01699 2.78292,25.64449 0.17179,31.88169 -2.74029,6.54572 -10.44944,12.66371 -30.48836,24.1956 l -18.28455,10.5223 -0.38212,11.17924 -0.38213,11.17922 z m 176.97089,-19.50329 v -3.65771 l 12.94907,1.12182 c 7.12198,0.617 13.60321,1.66469 14.40272,2.32822 0.7995,0.66354 2.92242,0.84991 4.7176,0.41418 2.21712,-0.53818 2.83632,-0.35394 1.93061,0.57442 -0.73333,0.75168 -8.68333,1.70646 -17.66667,2.12174 l -16.33333,0.75504 z m 36,0.88813 c 0,-0.6111 0.56459,-1.1111 1.25464,-1.1111 0.69005,0 1.56367,0.5 1.94135,1.1111 0.37769,0.61112 -0.1869,1.11112 -1.25464,1.11112 -1.06774,0 -1.94135,-0.5 -1.94135,-1.11112 z"
       id="path74" />
  </g>
</svg>
